<?xml version="1.0" encoding="utf-8"?>
<!-- Generator: Adobe Illustrator 19.2.1, SVG Export Plug-In . SVG Version: 6.00 Build 0)  -->
<svg version="1.1" id="layer" xmlns="http://www.w3.org/2000/svg" xmlns:xlink="http://www.w3.org/1999/xlink" x="0px" y="0px"
	 viewBox="0 0 652 652" style="enable-background:new 0 0 652 652;" xml:space="preserve">
<style type="text/css">
	.st0{fill:#3F484D;}
	.st1{fill:#E8537D;}
</style>
<g>
	<path class="st0" d="M492.5,206.2c-24.5-29.3-64.9-39.2-99-26.2c8.6,6.3,15,14.5,18.7,24.1c9.6-2.1,19.8-1.6,30.4,2
		c20.8,7,34.5,21.5,38.8,43.4c4.8,24.2-7,47.8-29,59.7c-23.4,12.7-50.3,8.8-70.1-10.4c-34.9-33.9-69.3-68.4-104.8-101.7
		c-33.6-31.5-87.1-30-120.1,1.9c-31.9,30.8-34.8,80.6-6.7,114.3c29.4,35.3,82.4,42.7,119.2,15.3c14.8-11,28.1-25.9,40.2-37.3
		l-22.2-22c-9.8,11.1-18.2,20.8-28.6,30.6c-16.6,15.7-36.8,21-58.9,13.5c-20.8-7.1-34.5-21.5-38.8-43.4c-4.8-25,7.1-48.1,30.1-60.2
		c23-12,49.4-7.9,68.9,11c34.9,33.9,69.2,68.5,104.8,101.7c33.8,31.6,86.9,30,120.1-1.9C517.6,289.9,520.5,239.8,492.5,206.2"/>
	<path class="st1" d="M460.6,119.2c4.2-2.1,7.4-5.1,8.9-9c4.7-12.3-7-31.8-28.3-36.5c-17.3-3.8-32.4-2.4-42.2,2.4
		C424.6,84.2,445.7,99.6,460.6,119.2"/>
	<path class="st0" d="M285.3,131.4l-14.7,27.2c0,0,16.3,28.5,58.4,43.5c42.1,15,22.9-21.7,22.9-21.7s-30.9-12.1-43-51.6
		C296.7,89.3,285.3,131.4,285.3,131.4"/>
	<path class="st1" d="M290.6,94c-16.2,8.5-26.9,24.4-26.7,42.4c0.1,7.7,2.2,15,5.9,21.4l0.7,1.2c26.4-16.7,58.4-26.7,93.1-27.1
		c39.3-0.5,75.6,11.3,104.2,31.4c-12.5-48.5-61.3-84.3-119.2-83.5c-18.8,0.2-36.5,4.3-52.3,11.4L290.6,94z"/>
	<path class="st1" d="M363.4,181.2c18.6,3.7,33.5,15.7,37.6,32.5c1.8,7.2,1.4,14.6-0.8,21.5l-0.5,1.3c-31-8.6-66.2-9.5-101.8-0.8
		c-40.3,9.9-74.5,30.5-99,56.8c1-48.6,42.2-94.9,101.6-109.5c19.3-4.7,38.4-5.6,56.3-3.2L363.4,181.2z"/>
	<path class="st0" d="M27.7,426.1v111.4c0,4.3,4.6,8,10.3,8c6,0,10.6-3.7,10.6-8v-52h-7.1c-1.7,0-2.9-1.4-2.9-2.9v-11.7
		c0-1.4,1.1-2.9,2.9-2.9h28.8c1.7,0,2.9,1.4,2.9,3.1v64c0,19.7-15.4,35.4-35.1,35.4c-19.4,0-35.1-15.7-35.1-35.4V432.1
		c0-12.8,2-24,7.4-31.7c2-3.4,5.7-6.6,9.1-8.3c12.9-7.1,33.1-2.3,52.3,11.4c1.1,0.9,1.4,1.4,1.4,2.6c0,0.3,0,0.9-0.3,1.1l-9.1,14.6
		c-0.6,0.9-1.4,1.4-2.6,1.4c-0.9,0-1.4-0.3-2-0.6c-10-8-19.4-11.7-25.1-8.6C29.4,416.7,27.7,419.8,27.7,426.1 M84.5,405.2
		c0-1.1,0.6-1.7,1.1-2.3l16.8-9.4c1.1-0.6,1.4-0.6,1.7-0.6c1.7,0,2.9,1.1,3.1,2.6v20.3c0,1.7-1.4,2.9-3.1,2.9H87.4
		c-1.7,0-2.9-1.2-2.9-2.9V405.2z M87.4,568.9c-1.7,0-2.9-1.1-2.9-2.9V428.7c0-1.7,1.1-2.9,2.9-2.9h16.9c1.7,0,3.1,1.1,3.1,2.9V566
		c0,1.7-1.4,2.9-3.1,2.9H87.4z M169.9,427.5v20.3c0,1.4-1.1,2.6-2.6,2.6c-16.3,1.1-25.7,10.6-25.7,22.6V566c0,1.7-1.4,2.9-3.1,2.9
		h-16.9c-1.7,0-3.1-1.1-3.1-2.9V427.5c0.9-1.1,2-1.7,3.1-1.7c0.3,0,0.9,0,1.4,0.3c0.6,0.3,15.1,8.3,15.1,8.3
		c8.6-6.3,17.1-9.7,28.8-9.7C168.8,425,169.6,426.1,169.9,427.5 M235.6,542.3c0,16-13.4,29.1-30.6,29.1c-16.9,0-30.6-13.1-30.6-29.1
		v-90.3c0-16,13.7-29.1,30.6-29.1c17.1,0,30.6,13.1,30.6,29.1V542.3z M212.7,452.9c0-3.1-3.4-6-7.7-6c-4,0-7.4,2.9-7.4,6v88.2
		c0,3.4,3.4,6.3,7.4,6.3c4.3,0,7.7-2.9,7.7-6.3V452.9z M326.7,566c0,1.7-1.1,2.9-2.9,2.9h-27.7c-17.1,0-30.6-12.3-30.6-28v-88.2
		c0-15.7,13.4-28.3,30.6-28.3c2.6,0,5.1,0.3,7.7,0.9v-25.4c0-0.9,0.6-1.7,1.4-2l17.4-10c0.6-0.3,0.9-0.3,1.1-0.3
		c1.4,0,2.9,1.1,2.9,2.6V566z M303.6,453.5c0-3.1-3.4-5.7-7.4-5.7c-4.3,0-7.7,2.6-7.7,5.7v86.5c0,3.1,3.4,5.7,7.7,5.7h7.4V453.5z
		 M346.7,389.8h14.9c2,0,3.1,2,2.3,4l-14.3,33.7c-0.9,2-3.1,3.4-5.1,3.4h-11.7c-2,0-3.1-2-2.3-4l11.1-33.7
		C342.4,391.5,344.7,389.8,346.7,389.8 M392.9,565.5c0,2-1.4,3.4-3.4,3.4h-17.7c-2,0-3.4-1.4-3.4-3.4V393.2c0-1.7,1.4-3.4,3.4-3.4
		h17.7c2,0,3.4,1.7,3.4,3.4V565.5z M441.7,549.2v18c0,1.4-0.9,2.6-2,2.9c-2,0.6-4,0.6-5.1,0.6c-16.8,0-30.3-13.1-30.3-29.1V405.2
		c0-0.9,0.6-1.7,1.1-2.3c0.6-0.3,16.8-9.4,16.8-9.4c1.1-0.6,1.4-0.6,2-0.6c1.4,0,2.6,1.1,2.9,2.6v28.9h11.4c1.7,0,2.9,1.1,2.9,2.9
		v18.3c0,1.7-1.1,3.1-2.9,3.1h-11.4v91.7c0,3.4,3.4,6.3,7.4,6.3c1.4,0,2.6-0.3,4.3-0.6C440.5,546.3,441.7,547.5,441.7,549.2
		 M447.5,452.9v-0.6c4.3-7.1,18.3-30.3,34.8-30.3c12.3,0,24.8,12.6,24.8,31.1V566c0,1.7-1.1,2.9-2.9,2.9H473
		c-21.1-0.6-27.4-12.9-27.4-30.8c0-29.7,38.8-60.8,39.1-61.4v-13.4c0-5.4-0.9-12-6.3-12c-4.3,0-9.1,5.4-14.9,13.7
		c-0.6,0.9-1.1,1.4-2.3,1.4c-1.1,0-11.4-8-12.9-10c-0.9-0.9-1.1-1.4-1.1-2.3C447.3,453.5,447.3,453.2,447.5,452.9 M484.4,544.9
		v-37.1l-3.4,2.9c-6.6,5.4-12,18.6-12,23.7c0,6.3,1.7,10.6,11.4,10.6H484.4z M540.4,566c0,1.7-1.4,2.9-3.1,2.9h-16.8
		c-1.7,0-3.1-1.1-3.1-2.9V399.5c0.3-0.9,0.8-1.7,1.4-2l16.8-9.4c0.3-0.3,0.6-0.6,0.9-0.6c0.3,0,0.6-0.3,0.9-0.3
		c1.7,0,2.9,1.1,3.1,2.6V566z M550.6,405.2c0-1.1,0.6-1.7,1.1-2.3l16.9-9.4c1.1-0.6,1.4-0.6,1.7-0.6c1.7,0,2.9,1.1,3.1,2.6v20.3
		c0,1.7-1.4,2.9-3.1,2.9h-16.8c-1.7,0-2.9-1.2-2.9-2.9V405.2z M553.5,568.9c-1.7,0-2.9-1.1-2.9-2.9V428.7c0-1.7,1.1-2.9,2.9-2.9
		h16.8c1.7,0,3.1,1.1,3.1,2.9V566c0,1.7-1.4,2.9-3.1,2.9H553.5z M580.7,452.9v-0.6c4.3-7.1,18.3-30.3,34.8-30.3
		c12.3,0,24.8,12.6,24.8,31.1V566c0,1.7-1.1,2.9-2.9,2.9h-31.4c-21.1-0.6-27.4-12.9-27.4-30.8c0-29.7,38.8-60.8,39.1-61.4v-13.4
		c0-5.4-0.9-12-6.3-12c-4.3,0-9.1,5.4-14.9,13.7c-0.6,0.9-1.1,1.4-2.3,1.4c-1.1,0-11.4-8-12.9-10c-0.8-0.9-1.1-1.4-1.1-2.3
		C580.4,453.5,580.4,453.2,580.7,452.9 M617.5,544.9v-37.1l-3.4,2.9c-6.6,5.4-12,18.6-12,23.7c0,6.3,1.7,10.6,11.4,10.6H617.5z"/>
</g>
</svg>
